<svg width="482" height="465" viewBox="0 0 482 465" fill="none" xmlns="http://www.w3.org/2000/svg">
<path d="M310.08 464.67H169.54C153.53 464.67 140.55 451.7 140.54 435.69L140.48 347.6C140.47 331.58 153.44 318.59 169.46 318.58H169.48C185.49 318.58 198.47 331.55 198.48 347.56L198.52 406.67H281.08V302.13L158.47 192.56H29C12.98 192.56 0 179.58 0 163.56V29C0 12.98 12.98 0 29 0H453.01C469.03 0 482.01 12.98 482.01 29V160.57C482.01 176.59 469.03 189.57 453.01 189.57H386.13C370.11 189.57 357.13 176.59 357.13 160.57C357.13 144.55 370.11 131.57 386.13 131.57H424.01V58H58V134.56H169.54C176.67 134.56 183.55 137.19 188.86 141.94L329.4 267.53C335.56 273.03 339.08 280.9 339.08 289.15V435.67C339.08 451.69 326.1 464.67 310.08 464.67Z" fill="black"/>
<path d="M317.99 187.61H269.44C253.42 187.61 240.44 174.63 240.44 158.61C240.44 142.59 253.42 129.61 269.44 129.61H317.99C334.01 129.61 346.99 142.59 346.99 158.61C346.99 174.63 334.01 187.61 317.99 187.61Z" fill="black"/>
<path d="M169.86 308.98C187.014 308.98 200.92 295.074 200.92 277.92C200.92 260.766 187.014 246.86 169.86 246.86C152.706 246.86 138.8 260.766 138.8 277.92C138.8 295.074 152.706 308.98 169.86 308.98Z" fill="black"/>
</svg>
