<svg width="180" height="185" viewBox="0 0 180 185" fill="none" xmlns="http://www.w3.org/2000/svg">
<path d="M12.1411 13.5128H137.865L137.872 139.243H12.134L12.1411 13.5128Z" fill="white"/>
<path d="M135.008 19.2404C135.008 19.2404 98.5495 13.5835 75.0028 13.5835C51.4703 13.5835 14.9977 19.2404 14.9977 19.2404V139.236C14.9977 139.236 51.5693 134.994 75.0028 134.994C98.4363 134.994 135.008 139.236 135.008 139.236V19.2404ZM149.999 154.241C149.999 154.241 104.334 148.584 75.0028 148.584C45.672 148.584 0.00706718 154.241 0.00706718 154.241L0 4.24264L74.9957 0L150.006 4.24264V154.248L149.999 154.241Z" fill="black"/>
<path d="M41.9314 43.3032L167.655 43.3032L167.655 169.027L41.9243 169.034L41.9314 43.3032Z" fill="white"/>
<path d="M164.798 49.0309C164.798 49.0309 128.34 43.374 104.793 43.374C81.2608 43.374 44.7883 49.0309 44.7883 49.0309V169.027C44.7883 169.027 81.3598 164.784 104.793 164.784C128.227 164.784 164.798 169.027 164.798 169.027V49.0309ZM179.789 184.032C179.789 184.032 134.124 178.375 104.793 178.375C75.4625 178.375 29.7976 184.032 29.7976 184.032L29.7905 34.0332L104.786 29.7905L179.796 34.0332V184.039L179.789 184.032Z" fill="black"/>
<path d="M56.7949 88.0349C56.7949 88.0349 86.055 83.7922 104.793 83.7922C123.546 83.7922 152.792 88.0349 152.792 88.0349V103.04C152.792 103.04 123.532 98.797 104.793 98.797C86.0479 98.8041 56.7949 103.04 56.7949 103.04L56.7949 88.0349Z" fill="black"/>
<path d="M56.7949 115.032C56.7949 115.032 86.055 110.79 104.793 110.79C123.539 110.782 152.792 115.032 152.792 115.032V130.037C152.792 130.037 123.532 125.794 104.793 125.794C86.0479 125.801 56.7949 130.037 56.7949 130.037V115.032Z" fill="black"/>
<path d="M56.7949 143.03C56.7949 143.03 86.055 138.787 104.793 138.787C123.539 138.78 152.792 143.03 152.792 143.03V158.034C152.792 158.034 123.532 153.792 104.793 153.792C86.0479 153.785 56.7949 158.034 56.7949 158.034V143.03Z" fill="black"/>
<path d="M152.799 61.0305L152.792 76.0283C152.792 76.0283 152.764 76.0283 152.707 76.0141L152.707 94.9646L139.781 74.3595C134.69 73.7655 128.588 73.1221 122.429 72.62C121.778 77.5415 119.466 96.2303 119.459 108.88C119.459 123.56 122.591 146.364 122.591 146.364L127.237 153.838C127.237 153.838 111.518 153.039 102.75 153.039C93.9817 153.039 82.3286 153.831 82.3286 153.831L86.9814 146.364C86.9814 146.364 90.1139 123.56 90.1139 108.88C90.1068 96.2303 87.7945 77.5698 87.1511 72.6271C80.978 73.115 74.8828 73.7655 69.7775 74.3595L56.8657 94.9646L56.8657 76.0141L56.795 76.0283V61.0376C56.795 61.0376 86.048 56.7879 104.8 56.7879C123.553 56.7879 152.799 61.0305 152.799 61.0305ZM160.796 54.108L153.944 53.1109C152.721 52.9342 123.892 48.7834 104.8 48.7834C85.6944 48.7834 56.8586 52.9412 55.6495 53.118L48.7976 54.115L48.7976 87.0945L48.8683 87.0662V122.775L74.508 81.8478C76.4596 81.6356 78.3264 81.4376 80.1366 81.2538C80.9993 88.933 82.1094 100.438 82.1094 108.852C82.1094 120.562 79.974 138.126 79.2668 143.571L67.2673 162.84L82.866 161.779C82.9862 161.772 94.3565 161.008 102.743 161.008C111.2 161.008 126.671 161.786 126.827 161.8L142.1 162.578L130.299 143.578C129.592 138.133 127.463 120.576 127.463 108.852C127.47 100.36 128.588 88.8198 129.443 81.2609C131.282 81.4447 133.148 81.6427 135.065 81.8478L160.718 122.747V83.9974L160.803 83.9974L160.817 54.0868L160.796 54.108Z" fill="white"/>
<path d="M127.237 153.838C127.237 153.838 111.518 153.039 102.75 153.039C93.9819 153.039 82.3288 153.831 82.3288 153.831L86.9816 146.364C86.9816 146.364 90.114 123.56 90.114 108.88C90.107 96.2303 87.7947 77.5697 87.1513 72.627C80.9782 73.1149 74.883 73.7655 69.7776 74.3594L56.8659 94.9645L56.8659 76.0141L56.7952 76.0282V61.0375C56.7952 61.0375 86.0482 56.7878 104.801 56.7878C123.553 56.7878 152.799 61.0305 152.799 61.0305L152.792 76.0282C152.792 76.0282 152.764 76.0282 152.707 76.0141L152.707 94.9645L139.781 74.3594C134.69 73.7655 128.588 73.122 122.429 72.62C121.778 77.5414 119.466 96.2303 119.459 108.88C119.459 123.56 122.591 146.364 122.591 146.364L127.237 153.838Z" fill="black"/>
</svg>
