<?xml version="1.0" encoding="UTF-8"?>
<svg id="Layer_2" data-name="Layer 2" xmlns="http://www.w3.org/2000/svg" viewBox="0 0 772.78 405.14">
  <g id="Layer_3" data-name="Layer 3">
    <g>
      <g>
        <path d="M241.45,115.49s-1.25.93-3.42,2.58c-3.23,2.47-8.48,6.51-14.66,11.43-1.12.89-2.26,1.81-3.43,2.74-11.33,9.12-24.87,20.5-34.66,30.29-20.15,20.15-47.04,56.17-47.04,56.17l-16.13-16.13s3.61-4.83,9.17-11.94c9.62-12.31,25.1-31.45,37.88-44.23,9.78-9.78,23.32-21.16,34.65-30.29,1.17-.93,2.31-1.85,3.43-2.74,6.18-4.92,11.43-8.96,14.66-11.43,2.17-1.65,3.42-2.58,3.42-2.58l16.13,16.13Z"/>
        <path d="M270.48,144.51s-1.26.94-3.43,2.58c-3.23,2.47-8.48,6.51-14.66,11.43-1.11.89-2.26,1.81-3.43,2.74-11.32,9.13-24.86,20.51-34.65,30.3-20.15,20.15-47.04,56.17-47.04,56.17l-16.13-16.13s26.89-36.01,47.05-56.17c9.79-9.79,23.33-21.17,34.65-30.29,1.17-.93,2.31-1.85,3.43-2.74,6.18-4.92,11.43-8.96,14.66-11.43,2.17-1.65,3.42-2.58,3.42-2.58l16.13,16.12Z"/>
        <path d="M243.18,220.75c-20.13,20.18-46.88,56-46.88,56l-16.13-16.12s24.37-32.65,44.09-53.17l18.92,13.29Z"/>
        <path d="M276.35,245.74c-1.38,1.31-2.71,2.6-3.98,3.87-20.16,20.16-47.05,56.17-47.05,56.17l-8.49-8.5-7.63-7.63s9.94-13.31,22.26-28.26c0-.01.02-.02.02-.02,7.94-9.65,16.87-19.98,24.76-27.88.61-.61,1.24-1.23,1.88-1.86.58.43,1.17.88,1.77,1.33,2.22,1.67,4.6,3.49,7.09,5.41,1.98,1.53,4.02,3.12,6.09,4.76,1.08.86,2.18,1.73,3.28,2.61Z"/>
      </g>
      <path d="M563.58,289.65l-7.63,7.63-8.49,8.5s-26.89-36.01-47.05-56.17c-1.41-1.41-2.91-2.86-4.46-4.33,1.11-.86,2.21-1.71,3.3-2.55,1.86-1.43,3.7-2.82,5.5-4.17,2.79-2.09,5.44-4.05,7.89-5.85.61-.44,1.22-.88,1.8-1.3.72.71,1.42,1.4,2.1,2.08,7.89,7.9,16.82,18.23,24.76,27.88,12.33,14.96,22.28,28.28,22.28,28.28Z"/>
      <path d="M696.71,117.38l-85.19-76.08-20.37,20.37C554.92,22.75,501.27,0,437.1,0h-101.97c-62.83,0-116.75,22.59-153.34,61.83l-20.53-20.53-85.19,76.08L0,202.57l161.26,161.27s8.46-10.85,20.64-25.68c36.59,41.58,90.46,66.98,153.23,66.98h101.97c63.32,0,117.28-25.37,153.85-66.9,12.14,14.79,20.57,25.6,20.57,25.6l161.26-161.27-76.07-85.19ZM169.05,321.9c-4.56,5.62-7.47,9.27-7.76,9.65l-.03.03L32.25,202.57s33.12-45.29,58.43-70.59c25.3-25.3,70.58-58.42,70.58-58.42l13.18,13.18-24.03,21.46-10.28,9.18-76.07,85.19,85.91,85.92,25.54,25.54c-2.39,2.89-4.56,5.55-6.46,7.87ZM579.7,299.76l-11.46,11.46-20.26,20.26s-.06-.08-.18-.24l-.34.34s-34.76-43.87-59.95-69.07c-1.86-1.86-3.81-3.76-5.85-5.71-5.49,4.62-10.77,9.28-15.44,13.8-.77.75-1.52,1.49-2.26,2.23-11.53,11.54-26.17,29.37-38.34,44.94-5.98,7.66-11.2,14.55-14.92,19.53-1.86,2.49-3.34,4.49-4.36,5.87-.5.68-.89,1.21-1.15,1.57-.12.17-.22.31-.28.39-.04.04-.06.07-.07.09-.01.01-.01.02-.02.03l-18.08,24.89-18.56-24.53h0s-.01-.02-.02-.03c-.02-.02-.04-.05-.07-.1-.07-.08-.17-.22-.31-.4-.27-.35-.67-.88-1.2-1.57-1.06-1.38-2.6-3.39-4.54-5.89-3.87-4.99-9.29-11.91-15.48-19.59-12.55-15.58-27.64-33.54-39.3-45.2-.49-.49-.99-.98-1.49-1.48-3.26-3.19-6.8-6.46-10.49-9.73-1.58-1.4-3.19-2.8-4.81-4.2-1.8,1.73-3.54,3.43-5.2,5.09-24.8,24.81-58.87,67.7-59.92,69.04l-.03.03-20.58-20.58-11.45-11.45-3.04-3.04-93.94-93.94s19.08-26.09,39.34-49.73c6.44-7.5,12.99-14.76,19.09-20.86,9.77-9.77,22.52-20.71,34.49-30.45,1.15-.93,2.28-1.85,3.41-2.76,5.19-4.18,10.15-8.08,14.58-11.51,10.6-8.21,18.1-13.7,18.1-13.7l70.91,70.91c1.1-.97,2.2-1.93,3.27-2.89,3.3-2.95,6.43-5.89,9.28-8.74,1.29-1.29,2.62-2.66,3.98-4.1,10.79-11.39,23.55-27,34.35-40.83,5.99-7.66,11.21-14.56,14.93-19.54,1.86-2.49,3.34-4.49,4.35-5.87.5-.69.89-1.21,1.15-1.57.13-.17.22-.31.29-.39.03-.05.05-.08.06-.1.01-.01.02-.01.02-.02l18.46-25.42,18.45,25.42.02.02s.04.05.07.1c.06.08.16.21.28.39.26.35.65.88,1.16,1.57,1.01,1.37,2.49,3.38,4.35,5.86,3.72,4.99,8.94,11.88,14.93,19.55,10.81,13.84,23.57,29.46,34.37,40.85,1.35,1.43,2.68,2.8,3.96,4.08,3.79,3.79,8.06,7.72,12.57,11.64l70.93-70.92s.08.06.24.18l.28-.28s7.14,5.66,17.32,14.06c4.29,3.55,9.13,7.58,14.2,11.89,1.1.93,2.21,1.88,3.33,2.84,11.77,10.09,24.41,21.35,34.22,31.15,6.5,6.49,13.62,14.22,20.63,22.13,20.17,22.77,39.31,46.94,39.31,46.94l-39.46,39.46-57.83,57.83ZM611.49,331.55c-.29-.37-3.17-4-7.69-9.56-1.91-2.34-4.11-5.03-6.53-7.96l25.68-25.69,85.77-85.77-76.07-85.19-10.08-9.01-24.23-21.63,13.18-13.18s43.76,36.16,69.06,61.46c25.31,25.31,59.95,67.55,59.95,67.55l-129.01,129.01-.03-.03Z"/>
      <g>
        <path d="M650.67,202.57l-16.13,16.13s-26.89-36.02-47.04-56.17c-9.79-9.79-23.33-21.17-34.66-30.29-1.17-.93-2.31-1.85-3.43-2.74-6.18-4.92-11.43-8.96-14.66-11.43-2.17-1.65-3.42-2.58-3.42-2.58l16.13-16.13s1.25.93,3.42,2.58c3.23,2.47,8.48,6.51,14.66,11.43,1.12.89,2.26,1.81,3.43,2.74,11.33,9.13,24.87,20.51,34.65,30.29,12.77,12.77,28.25,31.91,37.87,44.22,5.57,7.12,9.18,11.95,9.18,11.95Z"/>
        <path d="M621.64,231.6l-16.13,16.13s-26.89-36.02-47.04-56.17c-9.79-9.79-23.33-21.17-34.65-30.3-1.17-.93-2.32-1.85-3.43-2.74-6.18-4.92-11.43-8.96-14.66-11.43-2.17-1.64-3.43-2.58-3.43-2.58l16.13-16.12s1.25.93,3.42,2.58c3.23,2.47,8.48,6.51,14.66,11.43,1.12.89,2.26,1.81,3.43,2.74,11.32,9.12,24.86,20.5,34.65,30.29,20.16,20.16,47.05,56.17,47.05,56.17Z"/>
        <path d="M592.61,260.63l-16.13,16.12s-26.75-35.82-46.89-56l19.2-13c19.67,20.54,43.82,52.88,43.82,52.88Z"/>
      </g>
      <path d="M515.11,202.64c-.06-.04-.13-.08-.21-.14-.01,0-.02-.01-.03-.02-.11-.07-.24-.16-.39-.27-.59-.4-1.45-1-2.55-1.76-.35-.24-.73-.5-1.13-.79-3.46-2.42-8.65-6.1-14.76-10.6-.01,0-.01-.01-.02-.01-.11-.08-.21-.16-.31-.24-.11-.08-.22-.16-.32-.24-.41-.29-.81-.59-1.21-.89-.56-.41-1.12-.83-1.69-1.25h0s-.07-.06-.1-.08c-.03-.02-.06-.04-.09-.07-.06-.05-.12-.1-.19-.15-.13-.1-.26-.2-.4-.3-.64-.48-1.29-.97-1.95-1.46-.2-.16-.4-.31-.6-.46-.87-.65-1.74-1.32-2.62-1.99-1.15-.88-2.32-1.78-3.49-2.68-.63-.49-1.26-.98-1.89-1.48-.46-.35-.92-.71-1.37-1.07-.68-.53-1.36-1.07-2.04-1.61l-.72-.57c-.87-.69-1.75-1.39-2.63-2.09-.04-.05-.09-.09-.14-.13-.92-.74-1.85-1.5-2.78-2.26-1.3-1.06-2.58-2.12-3.86-3.19-.94-.79-1.87-1.57-2.8-2.36-.11-.09-.21-.18-.32-.27-.05-.04-.09-.08-.14-.12-.77-.66-1.55-1.33-2.31-1.98-.07-.07-.14-.13-.21-.19-.41-.36-.82-.72-1.23-1.08-.07-.06-.15-.13-.23-.19h0c-.81-.71-1.61-1.42-2.4-2.13-.89-.8-1.78-1.6-2.65-2.4-.46-.43-.92-.85-1.37-1.27-.55-.51-1.1-1.02-1.64-1.54-.57-.53-1.13-1.07-1.69-1.62-.54-.5-1.07-1.02-1.59-1.54l-1.2-1.18c-.39-.39-.79-.79-1.19-1.2-.59-.6-1.18-1.21-1.77-1.83-.34-.34-.67-.69-1-1.05-.56-.58-1.11-1.17-1.68-1.77-.56-.6-1.13-1.21-1.7-1.83-.45-.5-.92-1.01-1.38-1.52-.81-.87-1.61-1.77-2.41-2.67t-.02-.02c-.85-.96-1.72-1.94-2.58-2.92-.59-.67-1.18-1.35-1.77-2.03-.59-.68-1.18-1.36-1.77-2.05l-.36-.42c-.7-.82-1.41-1.65-2.11-2.48-1.03-1.22-2.06-2.45-3.09-3.68-1.03-1.23-2.05-2.46-3.06-3.7-2.03-2.47-4.05-4.95-6.02-7.41-.78-.97-1.56-1.94-2.33-2.91-1.27-1.6-2.53-3.19-3.76-4.75-.32-.4-.64-.81-.95-1.21-.32-.4-.63-.8-.94-1.2-3.55-4.54-6.83-8.82-9.72-12.61-.31-.41-.62-.82-.92-1.21-.05-.08-.11-.15-.16-.22-.52-.69-1.03-1.36-1.53-2.01-.02-.03-.05-.06-.06-.09-.46-.61-.91-1.2-1.33-1.77-1.69-2.25-3.15-4.21-4.34-5.81-.29-.4-.56-.77-.82-1.12-.97-1.31-1.7-2.3-2.15-2.92-.1-.14-.19-.26-.26-.36-.19-.25-.28-.38-.28-.38,0,.01-.09.12-.24.33-.1.14-.24.32-.4.55-.22.29-.48.65-.79,1.07-.15.21-.32.44-.51.69-.08.11-.16.23-.26.35-.09.12-.18.25-.28.38-.01.01-.02.03-.03.04-.1.13-.2.27-.3.41-.14.19-.29.39-.43.59-.45.61-.94,1.27-1.47,1.98-.22.28-.43.58-.66.88-.46.62-.95,1.27-1.46,1.95-.49.65-1,1.33-1.52,2.03-.02.02-.03.04-.05.06-.51.68-1.04,1.38-1.58,2.1-.54.72-1.1,1.46-1.68,2.22-2.89,3.81-6.2,8.12-9.77,12.69-.36.46-.72.92-1.08,1.38-.37.47-.73.93-1.1,1.4-.02.01-.03.03-.04.05-.78.98-1.56,1.97-2.35,2.97-1.61,2.04-3.27,4.1-4.94,6.18-.58.72-1.16,1.43-1.75,2.15-.69.84-1.38,1.69-2.07,2.54-.08.09-.15.17-.22.26-1.2,1.48-2.42,2.96-3.65,4.43-.88,1.05-1.75,2.09-2.63,3.13-.85,1.02-1.71,2.03-2.57,3.03l-.03.03c-.86,1.01-1.72,2-2.57,2.99-1.48,1.7-2.96,3.37-4.42,5-.33.38-.67.76-1.01,1.13-.33.37-.66.74-1,1.1-.64.7-1.27,1.39-1.9,2.07-.45.49-.9.97-1.34,1.44-.17.19-.35.37-.52.56-.29.3-.57.6-.85.9-.13.13-.25.26-.38.39-1.22,1.28-2.43,2.52-3.61,3.7l-1.2,1.18c-.79.79-1.59,1.57-2.41,2.34-.02.01-.03.03-.04.04-.81.77-1.63,1.55-2.46,2.31-1.03.96-2.08,1.92-3.15,2.88-.67.62-1.35,1.23-2.04,1.83-.41.36-.81.72-1.22,1.08-.48.42-.97.85-1.46,1.27-.45.4-.91.79-1.36,1.18-.92.79-1.85,1.58-2.78,2.36-.55.47-1.11.94-1.66,1.4-1.4,1.17-2.82,2.34-4.23,3.5-.85.69-1.69,1.37-2.54,2.05-1.12.9-2.23,1.79-3.33,2.68-.39.31-.78.62-1.17.92-.77.61-1.53,1.2-2.29,1.78-.11.1-.23.18-.34.27-.51.41-1.03.81-1.54,1.2-.46.36-.91.71-1.37,1.06-2.77,2.14-5.47,4.18-8.05,6.1-.6.46-1.2.9-1.79,1.33-.59.44-1.17.88-1.74,1.3h0c-1.62,1.2-3.18,2.34-4.65,3.4-.36.27-.72.53-1.08.78-.73.53-1.44,1.05-2.13,1.54-.06.04-.12.09-.18.13-.59.42-1.15.82-1.7,1.21-.31.23-.61.44-.91.65-1.19.85-2.29,1.62-3.27,2.31-.19.13-.37.26-.55.38-.22.15-.43.3-.63.44-.19.14-.38.27-.56.39-.36.26-.7.5-1.02.71-.23.16-.45.31-.65.45-.2.15-.39.28-.57.39-.12.09-.23.17-.35.24-.1.08-.2.15-.29.2-.09.07-.17.13-.25.17-.09.07-.18.13-.25.18-.09.06-.16.11-.22.15-.08.05-.12.08-.12.08,0,0,1.08.76,3,2.14,2.98,2.14,7.99,5.79,14.12,10.42.29.22.58.44.88.67.27.2.55.41.82.62,4.49,3.41,9.49,7.3,14.69,11.46.91.73,1.84,1.48,2.76,2.23.91.73,1.81,1.47,2.72,2.22.65.53,1.3,1.07,1.95,1.6,1.04.86,2.09,1.74,3.13,2.62.8.67,1.6,1.34,2.4,2.03.24.21.49.41.73.62.68.57,1.35,1.15,2.02,1.74.27.23.54.47.81.7,1.37,1.18,2.72,2.38,4.06,3.57,3.89,3.47,7.64,6.97,11.11,10.41.28.27.56.55.84.83,25.19,25.19,62.98,75.14,62.98,75.14,0,0,.04-.06.13-.18.07-.1.16-.22.28-.39.14-.18.31-.42.51-.69.07-.1.16-.21.24-.33.03-.03.05-.07.08-.11.12-.15.24-.32.37-.5.37-.5.8-1.08,1.28-1.73.33-.45.69-.94,1.08-1.46.24-.32.48-.66.74-1,.19-.25.37-.5.57-.76s.4-.53.61-.81c.11-.15.22-.31.35-.47.12-.16.24-.32.36-.48,1.04-1.4,2.2-2.93,3.44-4.58.44-.58.89-1.17,1.35-1.78.46-.61.93-1.23,1.41-1.86.32-.42.65-.85.98-1.28.52-.68,1.06-1.37,1.6-2.08.83-1.08,1.68-2.19,2.55-3.32.37-.47.74-.94,1.1-1.42.2-.24.39-.49.58-.74.65-.83,1.3-1.68,1.97-2.53.66-.85,1.34-1.72,2.03-2.59.18-.22.36-.45.54-.68.38-.49.78-.99,1.18-1.49,1.02-1.3,2.07-2.61,3.12-3.93.42-.51.83-1.03,1.24-1.55.57-.7,1.14-1.41,1.71-2.11.68-.86,1.38-1.71,2.08-2.57.56-.69,1.12-1.37,1.68-2.05.73-.88,1.45-1.76,2.17-2.64,1.4-1.69,2.81-3.36,4.21-5.02.42-.51.85-1.01,1.28-1.51,1.21-1.42,2.42-2.82,3.61-4.21,1.31-1.49,2.6-2.96,3.88-4.4.65-.74,1.31-1.47,1.97-2.19.66-.72,1.3-1.43,1.95-2.13.8-.88,1.6-1.73,2.39-2.57.23-.24.45-.47.67-.7.24-.27.5-.54.76-.8l.75-.78c.89-.94,1.78-1.84,2.66-2.72.52-.52,1.05-1.04,1.58-1.56.68-.67,1.37-1.33,2.07-2,.69-.66,1.39-1.32,2.11-1.99,1.42-1.33,2.89-2.67,4.38-4,.89-.8,1.79-1.6,2.7-2.39.01-.01.02-.02.04-.03.66-.58,1.32-1.16,1.99-1.73.67-.58,1.34-1.16,2.01-1.72.11-.1.21-.19.32-.28,4.48-3.81,9.08-7.55,13.58-11.11.94-.74,1.87-1.47,2.8-2.19.08-.07.17-.13.25-.2.92-.72,1.84-1.43,2.75-2.13.91-.7,1.81-1.39,2.7-2.08.05-.03.1-.06.14-.1.85-.65,1.68-1.28,2.5-1.9,1.04-.78,2.07-1.55,3.07-2.3,1.1-.82,2.18-1.62,3.22-2.39.1-.07.19-.14.29-.21.27-.21.54-.4.8-.6.3-.22.6-.44.89-.65,3.63-2.66,6.88-4.99,9.55-6.88.48-.34.93-.66,1.37-.97.63-.44,1.22-.85,1.76-1.23.38-.27.73-.52,1.07-.75.2-.14.4-.28.59-.41.12-.08.24-.17.35-.24.23-.16.45-.31.65-.45.6-.42,1.08-.74,1.41-.98.12-.08.22-.14.3-.2.2-.14.31-.21.31-.21,0,0-.09-.06-.27-.19ZM386.39,202.72c-.13-.1-.2-.15-.2-.15l.2-.2.2.2s-.07.05-.2.15Z"/>
    </g>
  </g>
</svg>