<svg width="287" height="287" viewBox="0 0 287 287" fill="none" xmlns="http://www.w3.org/2000/svg">
<path d="M0 25C0 11.19 11.19 0 25 0H262C275.81 0 287 11.19 287 25V262C287 275.81 275.81 287 262 287H25C11.19 287 0 275.81 0 262V25Z" fill="black"/>
<path d="M66.1411 64.5128H191.865L191.872 190.243H66.134L66.1411 64.5128Z" fill="white"/>
<path d="M189.008 70.2404C189.008 70.2404 152.549 64.5835 129.003 64.5835C105.47 64.5835 68.9977 70.2404 68.9977 70.2404V190.236C68.9977 190.236 105.569 185.994 129.003 185.994C152.436 185.994 189.008 190.236 189.008 190.236V70.2404ZM203.999 205.241C203.999 205.241 158.334 199.584 129.003 199.584C99.672 199.584 54.0071 205.241 54.0071 205.241L54 55.2426L128.996 51L204.006 55.2426V205.248L203.999 205.241Z" fill="black"/>
<path d="M95.9314 94.3032L221.655 94.3032L221.655 220.027L95.9243 220.034L95.9314 94.3032Z" fill="white"/>
<path d="M218.798 100.031C218.798 100.031 182.34 94.374 158.793 94.374C135.261 94.374 98.7883 100.031 98.7883 100.031V220.027C98.7883 220.027 135.36 215.784 158.793 215.784C182.227 215.784 218.798 220.027 218.798 220.027V100.031ZM233.789 235.032C233.789 235.032 188.124 229.375 158.793 229.375C129.463 229.375 83.7976 235.032 83.7976 235.032L83.7905 85.0332L158.786 80.7905L233.796 85.0332V235.039L233.789 235.032Z" fill="black"/>
<path d="M110.795 139.035C110.795 139.035 140.055 134.792 158.793 134.792C177.546 134.792 206.792 139.035 206.792 139.035V154.04C206.792 154.04 177.532 149.797 158.793 149.797C140.048 149.804 110.795 154.04 110.795 154.04L110.795 139.035Z" fill="black"/>
<path d="M110.795 166.032C110.795 166.032 140.055 161.79 158.793 161.79C177.539 161.782 206.792 166.032 206.792 166.032V181.037C206.792 181.037 177.532 176.794 158.793 176.794C140.048 176.801 110.795 181.037 110.795 181.037V166.032Z" fill="black"/>
<path d="M110.795 194.03C110.795 194.03 140.055 189.787 158.793 189.787C177.539 189.78 206.792 194.03 206.792 194.03V209.034C206.792 209.034 177.532 204.792 158.793 204.792C140.048 204.785 110.795 209.034 110.795 209.034V194.03Z" fill="black"/>
<path d="M206.799 112.031L206.792 127.028C206.792 127.028 206.764 127.028 206.707 127.014L206.707 145.965L193.781 125.359C188.69 124.766 182.588 124.122 176.429 123.62C175.778 128.541 173.466 147.23 173.459 159.88C173.459 174.56 176.591 197.364 176.591 197.364L181.237 204.838C181.237 204.838 165.518 204.039 156.75 204.039C147.982 204.039 136.329 204.831 136.329 204.831L140.981 197.364C140.981 197.364 144.114 174.56 144.114 159.88C144.107 147.23 141.795 128.57 141.151 123.627C134.978 124.115 128.883 124.766 123.777 125.359L110.866 145.965L110.866 127.014L110.795 127.028V112.038C110.795 112.038 140.048 107.788 158.8 107.788C177.553 107.788 206.799 112.031 206.799 112.031ZM214.796 105.108L207.944 104.111C206.721 103.934 177.892 99.7834 158.8 99.7834C139.694 99.7834 110.859 103.941 109.649 104.118L102.798 105.115L102.798 138.094L102.868 138.066V173.775L128.508 132.848C130.46 132.636 132.326 132.438 134.137 132.254C134.999 139.933 136.109 151.438 136.109 159.852C136.109 171.562 133.974 189.126 133.267 194.571L121.267 213.84L136.866 212.779C136.986 212.772 148.356 212.008 156.743 212.008C165.2 212.008 180.671 212.786 180.827 212.8L196.1 213.578L184.299 194.578C183.592 189.133 181.463 171.576 181.463 159.852C181.47 151.36 182.588 139.82 183.443 132.261C185.282 132.445 187.148 132.643 189.065 132.848L214.718 173.747V134.997L214.803 134.997L214.817 105.087L214.796 105.108Z" fill="white"/>
<path d="M181.237 204.838C181.237 204.838 165.518 204.039 156.75 204.039C147.982 204.039 136.329 204.831 136.329 204.831L140.982 197.364C140.982 197.364 144.114 174.56 144.114 159.88C144.107 147.23 141.795 128.57 141.151 123.627C134.978 124.115 128.883 124.765 123.778 125.359L110.866 145.965L110.866 127.014L110.795 127.028V112.038C110.795 112.038 140.048 107.788 158.801 107.788C177.553 107.788 206.799 112.03 206.799 112.03L206.792 127.028C206.792 127.028 206.764 127.028 206.707 127.014L206.707 145.965L193.781 125.359C188.69 124.765 182.588 124.122 176.429 123.62C175.778 128.541 173.466 147.23 173.459 159.88C173.459 174.56 176.591 197.364 176.591 197.364L181.237 204.838Z" fill="black"/>
</svg>
